<svg id="Group_209" data-name="Group 209" xmlns="http://www.w3.org/2000/svg" xmlns:xlink="http://www.w3.org/1999/xlink" width="1164.833" height="687.533" viewBox="0 0 1164.833 687.533">
  <defs>
    <clipPath id="clip-path">
      <path id="Path_403" data-name="Path 403" d="M586.83,84.723s-35.735,24.7-48.677,57.2c0,0,4.37,87.19,48.816,85.564,0,0,42.061-.258,48.5-85.745C635.465,141.746,619.267,111.2,586.83,84.723Z" transform="translate(-538.153 -84.723)" fill="none"/>
    </clipPath>
    <clipPath id="clip-path-2">
      <path id="Path_427" data-name="Path 427" d="M373.413,158.631l31.556,4.226s-3.976,12.336-18.406,10.4S373.413,158.631,373.413,158.631Z" transform="translate(-373.384 -158.631)"/>
    </clipPath>
  </defs>
  <g id="Group_170" data-name="Group 170">
    <g id="Group_156" data-name="Group 156" transform="translate(135.173 465.752)">
      <path id="Path_349" data-name="Path 349" d="M308.66,320.821c6.147,5.944,12.091,210.016,12.091,210.016H229.278l-11.292-90.982-10.654,90.982H113.358l14.679-198.129Z" transform="translate(-113.358 -320.821)" fill="#83b7eb"/>
      <line id="Line_9" data-name="Line 9" x1="53.691" transform="translate(75.017 118.295)" fill="none" stroke="#3a8ecb" stroke-linecap="round" stroke-linejoin="round" stroke-width="2"/>
    </g>
    <g id="Group_164" data-name="Group 164" transform="translate(0 64.25)">
      <g id="Group_158" data-name="Group 158" transform="translate(310.331 185.055)">
        <g id="Group_157" data-name="Group 157" transform="translate(20.271 75.195)">
          <path id="Path_350" data-name="Path 350" d="M262.031,391.493s-12.386,13.535-2.388,36.314l-3.774,23.712a7.472,7.472,0,0,0,5.2,8.321h0a7.472,7.472,0,0,0,9.259-4.737l4.656-13.669,1.059,4.926a35.522,35.522,0,0,1-2.857,23.156l-10.056,20.427a7.1,7.1,0,0,0,.554,7.209h0a7.1,7.1,0,0,0,11.74-.157L292,471.9a40.458,40.458,0,0,0,5.269-32.988l-11.607-55.241Z" transform="translate(-212.687 -137.148)" fill="#fab69a"/>
          <path id="Path_351" data-name="Path 351" d="M279.381,490.833,230.432,271.985c-3-14.024,11.559-32.2,25.625-35h0a25.7,25.7,0,0,1,30.7,24.58l16.253,221.446Z" transform="translate(-230.037 -236.488)" fill="#fab69a"/>
        </g>
        <path id="Path_352" data-name="Path 352" d="M255.993,191.594s57.5,22.576,57.5,147.382l-95.562,3.7Z" transform="translate(-217.934 -191.594)" fill="#ffa405"/>
      </g>
      <g id="Group_162" data-name="Group 162">
        <g id="Group_159" data-name="Group 159" transform="translate(45.305 185.055)">
          <path id="Path_353" data-name="Path 353" d="M59.7,304.88l124.84-59.607-61.9-36.834L67.209,242.774Z" transform="translate(-59.703 -180.225)" fill="#ffa405"/>
          <path id="Path_354" data-name="Path 354" d="M142.94,191.594c-25.891,14.028-73.412,56.46-73.412,56.46l36.812,84.139,86.844-36.247Z" transform="translate(-53.072 -191.594)" fill="#ffa405"/>
        </g>
        <g id="Group_161" data-name="Group 161">
          <path id="Path_355" data-name="Path 355" d="M101.122,153.508l-24.156-8.686L34.185,313.407A29.586,29.586,0,0,0,59.464,352.2h0a29.585,29.585,0,0,0,32.088-25.327Z" transform="translate(-32.654 -38.107)" fill="#fab69a"/>
          <g id="Group_160" data-name="Group 160" transform="translate(21.114)">
            <path id="Path_356" data-name="Path 356" d="M92.614,196.51l11.52-12.718a57.159,57.159,0,0,0,12.751-23.231l4.176-15.2a6.056,6.056,0,0,0-5.229-7.629h0a7.752,7.752,0,0,0-7.644,4.107L100.4,156.652,98.235,91.16a4.689,4.689,0,0,0-5.34-4.588l-1.878.263A4.693,4.693,0,0,0,86.986,91.2l.069,38.822L80.809,85.437A4.689,4.689,0,0,0,75.2,81.2l-1.367.276a4.692,4.692,0,0,0-3.748,4.956l5.127,46.582L64.262,96.555a4.689,4.689,0,0,0-6.708-2.906l-.534.283a4.688,4.688,0,0,0-2.425,5l7.293,39.282L54.413,115.07a4.691,4.691,0,0,0-7.7-1.951h0a4.685,4.685,0,0,0-1.338,4.415l19.4,86.827Z" transform="translate(-45.26 -81.109)" fill="#fab69a"/>
            <path id="Path_357" data-name="Path 357" d="M85.943,126.211s-12.649,2.926-19.257,17.771" transform="translate(-30.799 -50.668)" fill="none" stroke="#ea957b" stroke-linecap="round" stroke-linejoin="round" stroke-width="1.5"/>
          </g>
          <line id="Line_10" data-name="Line 10" x1="2.568" y2="32.111" transform="translate(59.124 244.719)" fill="none" stroke="#ea957b" stroke-linecap="round" stroke-linejoin="round" stroke-width="1.5"/>
        </g>
      </g>
      <g id="Group_163" data-name="Group 163" transform="translate(135.173 139.707)">
        <path id="Path_358" data-name="Path 358" d="M291.361,182.3l35.214,15.666-6.594,280.258s-97.823,18.687-204.258,0l-2.365-280.258,37.688-15.806Z" transform="translate(-113.358 -152.615)" fill="#ffa405"/>
        <line id="Line_11" data-name="Line 11" y1="86.112" x2="2.056" transform="translate(208.868 108.47)" fill="none" stroke="#000" stroke-linecap="round" stroke-linejoin="round" stroke-width="1.746"/>
        <line id="Line_12" data-name="Line 12" x1="1.174" y1="64.303" transform="translate(2.095 105.003)" fill="none" stroke="#000" stroke-linecap="round" stroke-linejoin="round" stroke-width="1.746"/>
        <path id="Path_359" data-name="Path 359" d="M207.7,164.519,276.175,194.2s-70.356,63.58-140.316-.141Z" transform="translate(-98.171 -164.519)" fill="#fab69a"/>
      </g>
    </g>
    <g id="Group_169" data-name="Group 169" transform="translate(161.526)">
      <path id="Path_360" data-name="Path 360" d="M191.482,60.317s33.239-14.811,45.021,13.2c11.343,26.963-33.706,52.657-33.706,52.657Z" transform="translate(-86.983 -33.533)"/>
      <path id="Path_361" data-name="Path 361" d="M206.27,68.972S199.9,95.95,216.436,111.02V73.663Z" transform="translate(-77.815 -25.05)"/>
      <path id="Path_362" data-name="Path 362" d="M267.852,96.728c0,76.538-28.273,81.489-63.15,81.489-48.519,0-65.47-45.912-65.47-79.921s30.594-43.24,65.47-43.24S267.852,62.719,267.852,96.728Z" transform="translate(-122.248 -34.443)"/>
      <g id="Group_165" data-name="Group 165" transform="translate(8.88 103.057)">
        <path id="Path_363" data-name="Path 363" d="M154.7,107.3s-9.87-7.668-17.084,1.439c-10.961,13.837,8.221,38.9,24.9,25.993Z" transform="translate(-134.393 -104.278)" fill="#fab69a"/>
        <path id="Path_364" data-name="Path 364" d="M140.556,111.666s5.521-1.735,11.487,9.89" transform="translate(-130.234 -99.353)" fill="none" stroke="#000" stroke-linecap="round" stroke-linejoin="round" stroke-width="0.959"/>
      </g>
      <g id="Group_166" data-name="Group 166" transform="translate(126.563 103.057)">
        <path id="Path_365" data-name="Path 365" d="M212.472,107.3s9.87-7.668,17.084,1.439c10.962,13.837-8.221,38.9-24.9,25.993Z" transform="translate(-204.655 -104.278)" fill="#fab69a"/>
        <path id="Path_366" data-name="Path 366" d="M219.913,111.666s-5.521-1.735-11.488,9.89" transform="translate(-202.111 -99.353)" fill="none" stroke="#000" stroke-linecap="round" stroke-linejoin="round" stroke-width="0.959"/>
      </g>
      <path id="Path_367" data-name="Path 367" d="M168.6,141.609l-4.785,59.456H212.98L206.05,140.9Z" transform="translate(-105.653 23.496)" fill="#fab69a"/>
      <path id="Path_368" data-name="Path 368" d="M166.352,146.008c1.646.8,40.448,18.567,40.448,18.567L204.341,140.9Z" transform="translate(-103.944 23.496)"/>
      <path id="Path_369" data-name="Path 369" d="M146.608,104.963s-8.115,99,51.188,100.191c64.09,1.283,56-100.191,56-100.191s-.353-42.813-54.074-42.813C150.474,62.15,146.608,104.963,146.608,104.963Z" transform="translate(-117.523 -29.655)" fill="#fab69a"/>
      <g id="Group_168" data-name="Group 168" transform="translate(41.075 81.193)">
        <path id="Path_370" data-name="Path 370" d="M170.645,108.279a4.565,4.565,0,1,1-4.566-4.564A4.565,4.565,0,0,1,170.645,108.279Z" transform="translate(-148.283 -82.794)"/>
        <path id="Path_371" data-name="Path 371" d="M197.888,108.279a4.566,4.566,0,1,1-4.566-4.564A4.566,4.566,0,0,1,197.888,108.279Z" transform="translate(-129.897 -82.794)"/>
        <path id="Path_372" data-name="Path 372" d="M153.615,100.776l30.631-2.76s-2.742-7.938-15.128-6.649C156.447,92.682,153.615,100.776,153.615,100.776Z" transform="translate(-153.615 -91.225)"/>
        <path id="Path_373" data-name="Path 373" d="M214.327,100.776l-30.633-2.76s2.744-7.938,15.128-6.649C211.495,92.682,214.327,100.776,214.327,100.776Z" transform="translate(-133.314 -91.225)"/>
        <path id="Path_374" data-name="Path 374" d="M176.687,109.961l-1.469,12.98,5.4.1" transform="translate(-139.034 -78.579)" fill="none" stroke="#000" stroke-linecap="round" stroke-linejoin="round" stroke-width="0.959"/>
        <g id="Group_167" data-name="Group 167" transform="translate(21.024 52.85)">
          <path id="Path_375" data-name="Path 375" d="M166.167,122.778h35.725s-2.414,10.658-17.66,10.658S166.167,122.778,166.167,122.778Z" transform="translate(-166.167 -122.778)" fill="#fff"/>
        </g>
      </g>
      <path id="Path_376" data-name="Path 376" d="M143.89,116.2l6.591,13.213-2.292-41.7Z" transform="translate(-119.104 -12.402)"/>
      <path id="Path_377" data-name="Path 377" d="M211.476,91.224l-2.053,35.817,7.337-13.953Z" transform="translate(-74.874 -10.032)"/>
      <path id="Path_378" data-name="Path 378" d="M260.079,97.189s-19.92,17.774-45.439,4.117c0,0-64.922,40-83.248-3.544-15.277-36.3,48.143-85.557,113.57-30.05Z" transform="translate(-129.092 -42.749)"/>
    </g>
  </g>
  <g id="Group_190" data-name="Group 190" transform="translate(671.912 40.915)">
    <path id="Path_379" data-name="Path 379" d="M558.5,304.824s-54.32,107.943-65.652,236.968l259.079-.481S736.482,404.78,684.3,304.591Z" transform="translate(-393.964 93.061)" fill="#192746"/>
    <g id="Group_178" data-name="Group 178" transform="translate(0 168.621)">
      <g id="Group_173" data-name="Group 173" transform="translate(0 39.403)">
        <g id="Group_172" data-name="Group 172" transform="translate(0 143.777)">
          <g id="Group_171" data-name="Group 171" transform="translate(35.564)">
            <path id="Path_380" data-name="Path 380" d="M480.1,481.73l-25.055-2.415,33.4-166.145C490.679,294.649,506.45,271.96,524,278.3h0c14.585,5.273,20.8,26.868,16.19,41.679Z" transform="translate(-455.045 -277.216)" fill="#fbb295"/>
          </g>
          <path id="Path_381" data-name="Path 381" d="M495.476,403.06s4.38,17.011-14.312,31.765l-7.474,21.737a7.156,7.156,0,0,1-8.133,4.7h0a7.154,7.154,0,0,1-5.7-8.167l2.213-13.646-3.11,3.687a34,34,0,0,0-8,20.856l-.687,21.786a6.8,6.8,0,0,1-3.71,5.844h0a6.8,6.8,0,0,1-9.85-5.413l-2.732-28.663a38.736,38.736,0,0,1,10.381-30.249l34.653-41.468Z" transform="translate(-433.812 -203.912)" fill="#fbb295"/>
        </g>
        <path id="Path_382" data-name="Path 382" d="M476.593,357.938l34.2-145.955a26.088,26.088,0,0,1,32.088-19.756h0c13.723,3.579,30.676,17.542,27.4,31.341L525.849,377.041Z" transform="translate(-404.937 -191.376)" fill="#83b7eb"/>
      </g>
      <g id="Group_176" data-name="Group 176" transform="translate(287.604)">
        <path id="Path_383" data-name="Path 383" d="M690.985,345.757,657.158,210.684a26.088,26.088,0,0,0-31.951-19.977h0a26.087,26.087,0,0,0-19.016,31.132L642.859,387.7Z" transform="translate(-605.523 -152.968)" fill="#83b7eb"/>
        <g id="Group_175" data-name="Group 175" transform="translate(34.996)">
          <path id="Path_384" data-name="Path 384" d="M698.838,202.365l25.27,5.73L685.243,374.736a29.863,29.863,0,0,1-42.58,19.275h0a29.865,29.865,0,0,1-13.543-38.977Z" transform="translate(-626.417 -144.555)" fill="#fbb295"/>
          <g id="Group_174" data-name="Group 174" transform="translate(72.139)">
            <path id="Path_385" data-name="Path 385" d="M670.337,220.173l1.437-6.579A57.758,57.758,0,0,1,683.4,189.473l10.056-12.356a6.119,6.119,0,0,1,9.344-.174h0a7.834,7.834,0,0,1,1.107,8.7l-7.619,15.1L744.975,168.7a4.739,4.739,0,0,1,6.907,1.7l.886,1.7a4.739,4.739,0,0,1-1.224,5.876L719.57,200.7l40.339-21.022a4.738,4.738,0,0,1,6.772,2.125l.576,1.286a4.742,4.742,0,0,1-1.879,5.991l-34.614,20.592,29.71-9.86a4.739,4.739,0,0,1,6.326,3.814l.082.6a4.742,4.742,0,0,1-2.695,4.933l-30.134,12.443,16.969-2.827a4.738,4.738,0,0,1,6.124,5.187h0a4.738,4.738,0,0,1-2.846,3.695l-76.349,30.382-6.294-17.528A36.891,36.891,0,0,1,670.337,220.173Z" transform="translate(-669.486 -167.85)" fill="#fbb295"/>
            <path id="Path_386" data-name="Path 386" d="M686.827,187.485s5.015,12.121-3.32,26.268" transform="translate(-660.023 -154.598)" fill="none" stroke="#ec987c" stroke-linecap="round" stroke-linejoin="round" stroke-width="1.8"/>
          </g>
        </g>
      </g>
      <g id="Group_177" data-name="Group 177" transform="translate(122.282 14.382)">
        <path id="Path_387" data-name="Path 387" d="M607.566,176.437,506.819,203.521l42.257,187.8s59.5,23.735,125.8-.233l35.581-189.048Z" transform="translate(-506.819 -176.437)" fill="#83b7eb"/>
        <line id="Line_13" data-name="Line 13" x1="11.041" y2="59.061" transform="translate(182.943 75.971)" fill="none" stroke="#3a8ecb" stroke-linecap="round" stroke-linejoin="round" stroke-width="2"/>
        <line id="Line_14" data-name="Line 14" x2="10.489" y2="54.976" transform="translate(12.534 76.308)" fill="none" stroke="#3a8ecb" stroke-linecap="round" stroke-linejoin="round" stroke-width="2"/>
      </g>
    </g>
    <g id="Group_189" data-name="Group 189" transform="translate(131.454)">
      <g id="Group_179" data-name="Group 179">
        <path id="Path_388" data-name="Path 388" d="M558.784,173.561s-32.862,15.837-46.49,29.053c0,0,19.912,48.124,81.573,41.716,48.993-5.09,64.125-37.828,110.623-40.915,0,0-17.828-18.253-51.117-24.638Z" transform="translate(-512.295 4.625)" fill="#8549a0"/>
        <path id="Path_389" data-name="Path 389" d="M656.111,105.88c-12.52-35.81-55.68-38.5-59.824-38.688v-.015s-.075,0-.187.007-.188-.007-.188-.007v.015c-4.144.2-44.565,4.115-59.68,38.91-21.813,50.219-16.513,115.121,8.355,146.669l44.305,4.362,12.212-.023,45.359-6.531C680.836,208.247,669.324,143.675,656.111,105.88Z" transform="translate(-505.385 -67.177)" fill="#8549a0"/>
      </g>
      <g id="Group_187" data-name="Group 187" transform="translate(43.31 29.388)">
        <g id="Group_186" data-name="Group 186" clip-path="url(#clip-path)">
          <g id="Group_185" data-name="Group 185" transform="translate(-21.685 -17.799)">
            <rect id="Rectangle_39" data-name="Rectangle 39" width="97.602" height="67.581" transform="translate(21.632 92.897) rotate(-0.106)"/>
            <g id="Group_184" data-name="Group 184">
              <ellipse id="Ellipse_19" data-name="Ellipse 19" cx="60.723" cy="59.214" rx="60.723" ry="59.214" transform="matrix(1, -0.002, 0.002, 1, 9.851, 0.227)"/>
              <g id="Group_180" data-name="Group 180" transform="translate(0 79.5)">
                <path id="Path_390" data-name="Path 390" d="M544.712,124.449s-9.5-7.356-16.424,1.412c-10.515,13.326,7.974,37.386,23.992,24.951Z" transform="translate(-525.206 -121.561)" fill="#ffd1ba"/>
                <path id="Path_391" data-name="Path 391" d="M531.13,128.667s5.3-1.68,11.063,9.49" transform="translate(-521.208 -116.825)" fill="none" stroke="#000" stroke-linecap="round" stroke-linejoin="round" stroke-width="0.922"/>
              </g>
              <g id="Group_181" data-name="Group 181" transform="translate(113.19 79.281)">
                <path id="Path_392" data-name="Path 392" d="M600.254,124.348s9.478-7.391,16.431,1.353c10.564,13.286-7.835,37.415-23.9,25.039Z" transform="translate(-592.785 -121.43)" fill="#ffd1ba"/>
                <path id="Path_393" data-name="Path 393" d="M607.43,128.532s-5.31-1.658-11.028,9.532" transform="translate(-590.344 -116.695)" fill="none" stroke="#000" stroke-linecap="round" stroke-linejoin="round" stroke-width="0.922"/>
              </g>
              <path id="Path_394" data-name="Path 394" d="M536.845,122.25s-6.222,96.352,49.4,96.248c60.157-.112,53.67-96.441,53.67-96.441s-.415-41.166-52.074-41.071C540.486,81.073,536.845,122.25,536.845,122.25Z" transform="translate(-517.492 -69.446)" fill="#fbb295"/>
              <path id="Path_395" data-name="Path 395" d="M533.371,123.631l7.957,13.137-2.033-17.89Z" transform="translate(-519.696 -43.871)"/>
              <path id="Path_396" data-name="Path 396" d="M598.533,122.348l-1.764,12.515,8.009-13.432Z" transform="translate(-476.907 -42.148)"/>
              <g id="Group_183" data-name="Group 183" transform="translate(31.966 59.573)">
                <path id="Path_397" data-name="Path 397" d="M560.053,126.63a4.526,4.526,0,1,1-4.534-4.517A4.524,4.524,0,0,1,560.053,126.63Z" transform="translate(-539.762 -101.261)"/>
                <path id="Path_398" data-name="Path 398" d="M587.057,126.579a4.526,4.526,0,1,1-4.534-4.516A4.524,4.524,0,0,1,587.057,126.579Z" transform="translate(-521.536 -101.294)"/>
                <path id="Path_399" data-name="Path 399" d="M544.291,119.21l28.455-2.79s-2.735-7.862-15.009-6.562C545.179,111.186,544.291,119.21,544.291,119.21Z" transform="translate(-544.291 -109.63)"/>
                <path id="Path_400" data-name="Path 400" d="M601.432,119.1l-28.464-2.685s2.7-7.872,14.982-6.619C600.516,111.08,601.432,119.1,601.432,119.1Z" transform="translate(-524.936 -109.663)"/>
                <g id="Group_182" data-name="Group 182" transform="translate(22.215 52.921)">
                  <path id="Path_401" data-name="Path 401" d="M557.554,141.313l28.593-.054s-1.914,8.834-14.116,8.855S557.554,141.313,557.554,141.313Z" transform="translate(-557.554 -141.259)" fill="#fff"/>
                </g>
                <path id="Path_402" data-name="Path 402" d="M566.046,130.557l-1.439,9.059,5.355.089" transform="translate(-530.579 -95.562)" fill="none" stroke="#000" stroke-linecap="round" stroke-linejoin="round" stroke-width="0.95"/>
              </g>
            </g>
          </g>
        </g>
      </g>
      <g id="Group_188" data-name="Group 188" transform="translate(34.088 21.999)">
        <path id="Path_404" data-name="Path 404" d="M541.035,119.653s-5.953,6.443-8.388,34.916" transform="translate(-532.647 -53.758)" fill="none" stroke="#60297f" stroke-linecap="round" stroke-linejoin="round" stroke-width="1"/>
        <path id="Path_405" data-name="Path 405" d="M535.2,156.856s9.038,57.73,83.788,40.428" transform="translate(-530.923 -28.648)" fill="none" stroke="#60297f" stroke-linecap="round" stroke-linejoin="round" stroke-width="1"/>
        <path id="Path_406" data-name="Path 406" d="M534.422,177.567s6.633-6.644,20.618-.832" transform="translate(-531.449 -16.84)" fill="none" stroke="#60297f" stroke-linecap="round" stroke-linejoin="round" stroke-width="1"/>
        <path id="Path_407" data-name="Path 407" d="M596.7,119.383s7.021,10.552,8.149,29.177" transform="translate(-489.418 -53.94)" fill="none" stroke="#60297f" stroke-linecap="round" stroke-linejoin="round" stroke-width="1"/>
        <path id="Path_408" data-name="Path 408" d="M629.255,176.675s-26.105,3.759-81.226,52.5" transform="translate(-522.265 -15.272)" fill="none" stroke="#60297f" stroke-linecap="round" stroke-linejoin="round" stroke-width="1"/>
        <path id="Path_409" data-name="Path 409" d="M582.614,80.311s-6.445.446-15.4,7.39" transform="translate(-509.316 -80.311)" fill="none" stroke="#60297f" stroke-linecap="round" stroke-linejoin="round" stroke-width="1"/>
      </g>
    </g>
  </g>
  <g id="Group_208" data-name="Group 208" transform="translate(326.997 70.828)">
    <g id="Group_192" data-name="Group 192" transform="translate(0 314.11)">
      <path id="Path_410" data-name="Path 410" d="M326.785,331.583s30.959,8.741,14.508,42.247c-14.83,30.2-40.55,36.522-61.917,31.442a5.935,5.935,0,0,1-3.851-8.34h0a5.946,5.946,0,0,1,5.507-3.41c7.73.161,21.513-1.1,25.343-11.485,4.983-13.508-2.079-28.343,5.753-42.282Z" transform="translate(-196.124 -232.744)" fill="#ffc5aa"/>
      <g id="Group_191" data-name="Group 191">
        <path id="Path_411" data-name="Path 411" d="M366.16,377.552l-11.224,20.731L241.551,323.317a27.169,27.169,0,0,1-6.43-42.034h0a27.17,27.17,0,0,1,37.472-2.295Z" transform="translate(-227.884 -272.572)" fill="#ffc5aa"/>
      </g>
    </g>
    <g id="Group_193" data-name="Group 193" transform="translate(108.534 382.372)">
      <path id="Path_412" data-name="Path 412" d="M358.231,313.327s-65.85,68.212-65.547,222.619H396.627l5.9-91.125h9.048l7.832,91.125h92.552s15.463-100.925-42.331-216.164Z" transform="translate(-292.683 -313.327)" fill="#192746"/>
      <line id="Line_15" data-name="Line 15" x2="53.333" transform="translate(89.354 131.308)" fill="none" stroke="#040e24" stroke-linecap="round" stroke-linejoin="round" stroke-width="2"/>
    </g>
    <g id="Group_199" data-name="Group 199" transform="translate(181.771)">
      <path id="Path_413" data-name="Path 413" d="M362.841,114.785,337.49,199.213a26.409,26.409,0,0,0,21.836,33.616l101.581,13.607A26.412,26.412,0,0,0,490.8,219.2L487,131.414Z" transform="translate(-336.409 -64.958)" fill="#fb542e"/>
      <ellipse id="Ellipse_20" data-name="Ellipse 20" cx="62.283" cy="63.87" rx="62.283" ry="63.87" transform="translate(15.337 123.464) rotate(-82.372)" fill="#fb542e"/>
      <g id="Group_194" data-name="Group 194" transform="translate(8.324 82.727)">
        <path id="Path_414" data-name="Path 414" d="M363.358,138.7s-8.865-9.013-17.319-.853c-12.847,12.4,3.018,40.1,21.473,29.4Z" transform="translate(-341.379 -134.427)" fill="#ffc5aa"/>
        <path id="Path_415" data-name="Path 415" d="M347.78,141.747s5.767-1,10.187,11.458" transform="translate(-337.058 -129.5)" fill="none" stroke="#000" stroke-linecap="round" stroke-linejoin="round" stroke-width="0.97"/>
      </g>
      <g id="Group_195" data-name="Group 195" transform="translate(124.235 99.144)">
        <path id="Path_416" data-name="Path 416" d="M422.1,146.207s10.924-6.363,16.934,3.735c9.13,15.344-13.463,37.887-28.454,22.714Z" transform="translate(-410.582 -144.229)" fill="#ffc5aa"/>
        <path id="Path_417" data-name="Path 417" d="M427.866,151.87s-5.3-2.481-12.843,8.375" transform="translate(-407.585 -139.236)" fill="none" stroke="#000" stroke-linecap="round" stroke-linejoin="round" stroke-width="0.97"/>
      </g>
      <path id="Path_418" data-name="Path 418" d="M375.128,175.013l-12.78,58.959,49.282,6.6,1.131-61.244Z" transform="translate(-318.901 -24.308)" fill="#ffc5aa"/>
      <path id="Path_419" data-name="Path 419" d="M369.3,177.61c1.543,1.025,38.054,24.044,38.054,24.044l.714-24.064Z" transform="translate(-314.209 -22.569)"/>
      <path id="Path_420" data-name="Path 420" d="M358.268,133.258s-20.126,99.543,37.862,107.31c62.715,8.4,69.592-92.917,69.592-92.917s5.393-42.967-48.461-50.179C367.892,90.859,358.268,133.258,358.268,133.258Z" transform="translate(-323.936 -77.116)" fill="#ffc5aa"/>
      <path id="Path_421" data-name="Path 421" d="M415.284,102.272S387.361,132.9,434.16,161.407C434.16,161.407,437.981,115.367,415.284,102.272Z" transform="translate(-288.752 -73.403)" fill="#fb542e"/>
      <g id="Group_198" data-name="Group 198" transform="translate(45.435 71.608)">
        <path id="Path_422" data-name="Path 422" d="M378.348,144.492a4.617,4.617,0,1,1-3.963-5.189A4.618,4.618,0,0,1,378.348,144.492Z" transform="translate(-359.742 -120.046)"/>
        <path id="Path_423" data-name="Path 423" d="M405.657,148.15a4.618,4.618,0,1,1-3.963-5.189A4.616,4.616,0,0,1,405.657,148.15Z" transform="translate(-341.311 -117.577)"/>
        <path id="Path_424" data-name="Path 424" d="M363.535,135.413l29.152,1.085s-1.685-8.324-14.272-8.7C365.535,127.42,363.535,135.413,363.535,135.413Z" transform="translate(-363.535 -127.789)"/>
        <path id="Path_425" data-name="Path 425" d="M421.17,143.339l-28.41-6.624s3.815-7.587,16.057-4.635C421.344,135.1,421.17,143.339,421.17,143.339Z" transform="translate(-343.81 -125.354)"/>
        <g id="Group_197" data-name="Group 197" transform="translate(16.496 51.658)">
          <path id="Path_426" data-name="Path 426" d="M373.413,158.631l31.556,4.226s-3.976,12.336-18.406,10.4S373.413,158.631,373.413,158.631Z" transform="translate(-373.384 -158.631)"/>
          <g id="Group_196" data-name="Group 196" clip-path="url(#clip-path-2)">
            <path id="Rectangle_40" data-name="Rectangle 40" d="M0,0H31.838a0,0,0,0,1,0,0V5.058A2.472,2.472,0,0,1,29.366,7.53H2.472A2.472,2.472,0,0,1,0,5.058V0A0,0,0,0,1,0,0Z" transform="matrix(0.991, 0.133, -0.133, 0.991, 0.308, -2.081)" fill="#fff"/>
          </g>
        </g>
        <path id="Path_428" data-name="Path 428" d="M384.1,149.439l-2.7,8.962,5.4.826" transform="translate(-351.475 -113.177)" fill="none" stroke="#000" stroke-linecap="round" stroke-linejoin="round" stroke-width="0.97"/>
      </g>
      <path id="Path_429" data-name="Path 429" d="M452.561,111.889s-7.44,25.084-46.913,31.055c0,0,4.112-2.873,6.437-10.393,0,0-5.765,15.865-58.207,8.842,0,0,1.526-38.559,36.1-45.875S452.561,111.889,452.561,111.889Z" transform="translate(-324.619 -78.908)" fill="#fb542e"/>
      <path id="Path_430" data-name="Path 430" d="M351.094,136.508l6.434,14.818.414-18.934Z" transform="translate(-326.497 -53.074)" fill="#fb542e"/>
      <path id="Path_431" data-name="Path 431" d="M419.686,144.276l-3.611,12.794L426.324,144.2Z" transform="translate(-282.639 -45.102)" fill="#fb542e"/>
    </g>
    <g id="Group_207" data-name="Group 207" transform="translate(8.52 194.737)">
      <g id="Group_201" data-name="Group 201">
        <g id="Group_200" data-name="Group 200">
          <path id="Path_432" data-name="Path 432" d="M286.11,335.092l77.365-67.166c10.81-8.1.958-23.585-7.6-34.033h0a23.735,23.735,0,0,0-32.991-3.645l-89.909,81.4Z" transform="translate(-232.971 -185.172)" fill="#ffc5aa"/>
          <path id="Path_433" data-name="Path 433" d="M391.172,202.593S336.756,186.3,271.449,269.43l50.841,48.35,51.928-36.395Z" transform="translate(-207.001 -201.302)" fill="#ffadcd"/>
        </g>
      </g>
      <g id="Group_205" data-name="Group 205" transform="translate(284.663 22.841)">
        <g id="Group_202" data-name="Group 202">
          <path id="Path_434" data-name="Path 434" d="M466.084,388.47,455.838,262.2a23.735,23.735,0,0,0-25.7-22.687h0c-12.857,1.079-24.173,12.232-23.379,25.111l9.885,154.327Z" transform="translate(-400.366 -198.409)" fill="#ffc5aa"/>
          <path id="Path_435" data-name="Path 435" d="M427.97,214.939s50.337,4.075,43.006,103.861l-68.049,7.733Z" transform="translate(-402.926 -214.939)" fill="#ffadcd"/>
        </g>
        <g id="Group_204" data-name="Group 204" transform="translate(15.579 30.749)">
          <path id="Path_436" data-name="Path 436" d="M510.328,258.036l21.828,8.906L464.3,410.718a27.17,27.17,0,0,1-41.088,10.959h0a27.169,27.169,0,0,1-6.351-37Z" transform="translate(-412.227 -216.601)" fill="#ffc5aa"/>
          <g id="Group_203" data-name="Group 203" transform="translate(97.038)">
            <path id="Path_437" data-name="Path 437" d="M472.551,269.892l2.27-5.691a52.546,52.546,0,0,1,14.028-19.917l10.865-9.592a5.567,5.567,0,0,1,8.413,1.234h0a7.126,7.126,0,0,1-.3,7.971l-9.086,12.415,48.467-21.5a4.311,4.311,0,0,1,5.946,2.556l.543,1.657a4.311,4.311,0,0,1-1.973,5.09l-32.083,15.635,39.336-12.862a4.312,4.312,0,0,1,5.762,2.916l.325,1.241a4.311,4.311,0,0,1-2.579,5.1L528.35,269.464l28.132-4.425a4.312,4.312,0,0,1,5.11,4.365l-.017.556a4.308,4.308,0,0,1-3.152,4.025l-28.9,6.681,15.649-.012a4.312,4.312,0,0,1,4.725,5.569h0a4.307,4.307,0,0,1-3.105,2.891l-73.049,15.9-3.038-16.669A33.553,33.553,0,0,1,472.551,269.892Z" transform="translate(-470.163 -233.298)" fill="#ffc5aa"/>
            <path id="Path_438" data-name="Path 438" d="M490,247.038s2.695,11.627-6.892,23.082" transform="translate(-461.425 -224.024)" fill="none" stroke="#f5b297" stroke-linecap="round" stroke-linejoin="round" stroke-width="1.8"/>
          </g>
          <line id="Line_16" data-name="Line 16" x1="22.6" y2="29.841" transform="translate(23.213 110.657)" fill="none" stroke="#f5b297" stroke-linecap="round" stroke-linejoin="round" stroke-width="1.8"/>
        </g>
      </g>
      <g id="Group_206" data-name="Group 206" transform="translate(127.715 1.261)">
        <path id="Path_439" data-name="Path 439" d="M414.371,203.734l-48.694-1.648a53.923,53.923,0,0,0-39.731,15.545l-.714.7a53.918,53.918,0,0,0-14.3,51.806l32,124.114s55.273,30.279,115.977,5.979l45.637-147.488c3.36-10.859-2.7-25.085-13.332-29.11L448.235,209.84Z" transform="translate(-309.222 -202.055)" fill="#ffadcd"/>
        <path id="Path_440" data-name="Path 440" d="M346.111,202.2s12.436-.479,43.416,1.469l33.864,6.107,20.154,6.469s-2.261,32.989-51.876,25.307S346.111,202.2,346.111,202.2Z" transform="translate(-284.378 -201.991)" fill="#ffc5aa"/>
        <path id="Path_441" data-name="Path 441" d="M410.87,308.507s15.89-37.654,16.465-69.026" transform="translate(-240.616 -176.794)" fill="none" stroke="#ee80ad" stroke-linecap="round" stroke-linejoin="round" stroke-width="2"/>
        <line id="Line_17" data-name="Line 17" y1="14.76" x2="21.06" transform="translate(9.838 84.854)" fill="none" stroke="#ee80ad" stroke-linecap="round" stroke-linejoin="round" stroke-width="2"/>
      </g>
    </g>
  </g>
</svg>
